<?xml version="1.0" standalone="no"?>
<!DOCTYPE svg PUBLIC "-//W3C//DTD SVG 20010904//EN"
 "http://www.w3.org/TR/2001/REC-SVG-20010904/DTD/svg10.dtd">
<svg version="1.0" xmlns="http://www.w3.org/2000/svg"
 width="557.000000pt" height="561.000000pt" viewBox="0 0 557.000000 561.000000"
 preserveAspectRatio="xMidYMid meet">

<g transform="translate(0.000000,561.000000) scale(0.100000,-0.100000)"
fill="#000000" stroke="none">
<path d="M2673 4971 c-28 -11 -112 -54 -185 -97 -73 -42 -146 -85 -163 -94
-51 -29 -557 -320 -790 -455 -121 -70 -287 -166 -370 -213 -170 -98 -223 -146
-269 -242 l-31 -65 -3 -954 c-2 -936 -2 -956 18 -1015 39 -119 96 -182 235
-263 97 -56 299 -173 495 -285 91 -52 235 -135 320 -185 85 -49 247 -143 360
-208 113 -65 234 -135 269 -156 85 -51 159 -72 252 -71 103 0 144 18 445 194
137 80 337 196 444 258 233 135 390 225 605 351 88 51 185 106 215 123 77 42
141 110 181 192 l34 69 0 975 0 975 -32 65 c-51 106 -86 137 -288 253 -71 41
-200 115 -285 164 -85 49 -245 142 -355 205 -260 150 -262 151 -388 225 -59
35 -109 63 -112 63 -3 0 -35 19 -72 42 -232 142 -279 162 -388 165 -69 2 -102
-2 -142 -16z m198 -334 c24 -13 103 -57 174 -99 202 -117 846 -489 881 -508
41 -24 276 -160 342 -199 29 -17 57 -31 61 -31 5 0 27 -19 50 -41 l41 -41 0
-873 c0 -611 -3 -881 -11 -904 -14 -40 -36 -55 -364 -243 -148 -86 -324 -187
-390 -225 -66 -39 -180 -105 -252 -147 -73 -42 -193 -111 -265 -153 -278 -160
-302 -173 -338 -173 -27 0 -83 28 -235 116 -110 64 -240 140 -290 169 -49 28
-162 93 -250 144 -225 131 -616 356 -705 407 -96 54 -121 81 -131 141 -4 27
-8 421 -8 876 -1 910 -4 872 60 919 19 14 111 69 204 123 94 54 213 123 265
153 192 112 666 386 710 410 25 14 108 62 185 107 77 45 147 85 155 88 31 11
68 6 111 -16z"/>
<path d="M2960 2840 l0 -350 60 0 60 0 0 63 c0 51 5 69 26 101 31 46 23 52
107 -81 l52 -83 73 0 c41 0 72 4 70 8 -1 4 -37 61 -78 125 -41 65 -82 128 -89
141 -14 23 -12 27 28 80 24 31 42 58 40 60 -2 2 -22 -2 -43 -9 -22 -8 -43 -12
-48 -9 -5 3 -8 2 -6 -3 1 -4 -24 -33 -54 -64 -36 -36 -59 -69 -63 -90 -7 -29
-9 -31 -15 -14 -4 11 -5 21 -1 22 7 3 3 420 -4 441 -3 7 -24 12 -60 12 l-55 0
0 -350z m117 -192 c-3 -8 -6 -5 -6 6 -1 11 2 17 5 13 3 -3 4 -12 1 -19z"/>
<path d="M1525 3155 c-58 -20 -122 -94 -130 -150 -15 -95 18 -166 94 -205 20
-10 71 -28 114 -41 82 -23 117 -48 117 -80 0 -55 -57 -86 -138 -74 -47 7 -128
40 -138 56 -11 19 -22 7 -45 -47 -22 -56 -22 -57 -3 -72 57 -43 107 -57 216
-57 102 0 108 1 150 30 62 44 90 103 86 182 -6 102 -52 146 -197 189 -85 25
-131 57 -131 89 0 8 11 27 24 42 22 25 30 28 88 27 45 0 75 -6 106 -23 24 -12
45 -21 47 -19 2 2 13 27 24 55 l21 53 -25 16 c-65 42 -201 57 -280 29z"/>
<path d="M3970 3055 l0 -65 -36 0 -35 0 3 -52 c3 -51 4 -53 33 -53 l30 0 5
-155 c3 -95 10 -163 18 -177 33 -60 134 -89 205 -59 21 8 36 19 34 23 -3 5
-10 26 -16 48 -10 40 -11 41 -53 37 -62 -6 -68 7 -68 161 l0 128 53 -2 52 -3
3 51 3 52 -53 3 -53 3 -3 63 -3 62 -59 0 -60 0 0 -65z"/>
<path d="M2008 2996 c-21 -8 -49 -21 -62 -30 l-25 -16 21 -49 c19 -47 21 -49
42 -36 11 7 42 19 67 25 58 15 114 -5 129 -45 19 -51 17 -52 -90 -57 -80 -3
-105 -8 -127 -24 -90 -66 -79 -220 19 -264 24 -11 60 -20 81 -20 45 0 105 23
113 45 9 23 26 18 22 -7 -3 -21 1 -23 55 -26 l57 -3 0 188 c0 200 -9 243 -56
285 -52 46 -168 62 -246 34z m182 -321 c0 -89 -130 -129 -160 -49 -20 52 18
82 108 83 l52 1 0 -35z"/>
<path d="M2605 2996 c-17 -7 -36 -20 -44 -29 -20 -25 -32 -21 -25 8 6 25 5 25
-55 25 l-61 0 0 -255 0 -255 60 0 60 0 0 150 c0 175 10 211 63 236 47 22 86 9
109 -37 15 -28 18 -61 18 -191 l0 -158 61 0 60 0 -3 203 c-3 198 -4 205 -28
240 -45 67 -142 95 -215 63z"/>
<path d="M3553 2985 c-135 -68 -176 -272 -82 -409 69 -101 247 -127 339 -50
37 31 37 40 1 82 l-28 33 -34 -20 c-22 -13 -51 -21 -82 -21 -40 0 -53 5 -81
33 -19 17 -37 42 -41 55 l-6 22 165 0 166 0 0 50 c0 184 -164 301 -317 225z
m155 -101 c22 -15 52 -63 52 -84 0 -6 -40 -10 -110 -10 -60 0 -110 2 -110 5 0
20 32 75 51 89 30 20 88 21 117 0z"/>
</g>
</svg>
